<svg xmlns="http://www.w3.org/2000/svg" viewBox="0 0 1000 1000"><defs><style>.cls-1{fill:#1d1d1b;}.cls-2{fill:#fff;}.cls-3{fill:none;stroke:#fff;stroke-miterlimit:10;}</style></defs><g id="Capa_2" data-name="Capa 2"><rect class="cls-1" width="1000" height="1000" rx="142.86"/></g><g id="Capa_1" data-name="Capa 1"><path class="cls-2" d="M378.67,413V397.45a4.49,4.49,0,0,0-1.49-3.63,4.75,4.75,0,0,0-3.8-1.66h-39.1a4.39,4.39,0,0,0-3.46,1.58,4.75,4.75,0,0,0-1.52,3.71v34.63a4.9,4.9,0,0,0,1.52,3.77,4.55,4.55,0,0,0,3.46,1.58h58.63a31.57,31.57,0,0,1,31.68,31.71v11.11H416v88.31a31.62,31.62,0,0,1-31.71,31.71H306.42a31.57,31.57,0,0,1-31.73-31.71V506.61l46,10.38v32a4.78,4.78,0,0,0,1.52,3.74,4.33,4.33,0,0,0,3.43,1.55h39.11a4.72,4.72,0,0,0,3.71-1.52A4.82,4.82,0,0,0,370,549V488.66a4.76,4.76,0,0,0-1.52-3.71,4.92,4.92,0,0,0-3.77-1.61h-58.3a30.76,30.76,0,0,1-15.7-4l-22.53-13.11h18.57a31.08,31.08,0,0,1-3.43-14.51V377.93a31.17,31.17,0,0,1,9.25-22.46,30.78,30.78,0,0,1,22.51-9.28h77.82a31.6,31.6,0,0,1,31.68,31.74v45.91Z"/><path class="cls-2" d="M567.14,355.56c-6-6.22-13.76-9.37-23-9.37H466.28a29.92,29.92,0,0,0-21.77,9.26,30.92,30.92,0,0,0-9.26,22.81v87.92h-8.67V568.23A30.94,30.94,0,0,0,435.84,591a30,30,0,0,0,21.78,9.26h77.81c9.29,0,17.05-3.15,23-9.28a31.27,31.27,0,0,0,9.06-22.76v-88h8.66v-102C576.17,369.23,573.11,361.58,567.14,355.56ZM521.87,466.18V548.7a5.76,5.76,0,0,1-1.63,4.36c-.7.76-1.83,1.6-4.33,1.6H477.14a4.21,4.21,0,0,1-3.32-1.63,5.77,5.77,0,0,1-1.63-4.33V480.25h8.64V397.79a5.69,5.69,0,0,1,1.57-4.45,4.46,4.46,0,0,1,3.41-1.52h38.77c2.56,0,3.77.85,4.38,1.47a5.84,5.84,0,0,1,1.58,4.5v68.39Z"/><polygon class="cls-2" points="729.08 346.19 729.08 480.25 720.42 480.25 720.42 600.27 676.72 600.27 628.9 480.25 624.76 480.25 624.76 600.27 578.82 600.27 578.82 466.18 587.48 466.18 587.48 346.19 631.12 346.19 678.92 466.18 683.11 466.18 683.11 346.19 729.08 346.19"/><polygon class="cls-2" points="731.81 653.41 698.3 653.41 690.57 620.3 724.07 620.3 731.81 653.41"/><polygon class="cls-2" points="681.17 653.81 274.69 653.81 274.69 620.72 673.43 620.72 681.17 653.81"/><path class="cls-3" d="M311.29,337"/></g></svg>